<?xml version="1.0" encoding="iso-8859-1"?>
<!-- Generator: Adobe Illustrator 19.0.0, SVG Export Plug-In . SVG Version: 6.00 Build 0)  -->
<svg version="1.1" id="Capa_1" xmlns="http://www.w3.org/2000/svg" xmlns:xlink="http://www.w3.org/1999/xlink" x="0px" y="0px"
	 viewBox="0 0 512.001 512.001" style="enable-background:new 0 0 512.001 512.001;" xml:space="preserve">
<path style="fill:#FF6848;" d="M492.179,256l16.003-49.435c11.835-36.56-4.607-76.404-38.906-93.928l-46.271-23.641l-23.641-46.272
	C381.881,8.508,342.08-8.045,305.436,3.819L256,19.822L206.564,3.819c-36.56-11.835-76.404,4.607-93.928,38.906l-23.64,46.272
	l-46.272,23.641c-34.22,17.483-50.767,57.283-38.906,93.927L19.821,256L3.818,305.436c-11.835,36.56,4.607,76.404,38.906,93.928
	l46.271,23.641l23.641,46.272c17.482,34.215,57.281,50.769,93.928,38.905L256,492.178l49.436,16.003
	c36.558,11.834,76.404-4.606,93.928-38.906l23.641-46.271l46.272-23.641c34.219-17.484,50.767-57.284,38.905-93.928L492.179,256z"/>
<path style="fill:#F74B35;" d="M508.182,305.436L492.179,256l16.003-49.435c11.834-36.56-4.607-76.404-38.906-93.928l-46.271-23.641
	l-23.641-46.272C381.881,8.508,342.08-8.045,305.436,3.819L256,19.822v472.356l49.436,16.003
	c36.558,11.834,76.404-4.606,93.928-38.906l23.641-46.271l46.272-23.641C503.496,381.879,520.043,342.079,508.182,305.436z"/>
<g>
	<path style="fill:#ECEDF8;" d="M149.779,218.81c0-4.096,4.352-6.143,8.703-6.143h26.234c12.798,0,25.596,4.606,25.596,22.779
		c0,10.366-4.096,17.148-10.879,20.092c7.807,2.944,13.182,7.679,13.182,20.477v2.688c0,20.22-11.262,27.515-25.723,27.515h-28.41
		c-5.375,0-8.703-2.815-8.703-6.015L149.779,218.81L149.779,218.81z M169.616,247.86h13.437c4.863,0,7.295-4.479,7.295-8.831
		c0-4.479-2.432-8.958-7.295-8.958h-13.437V247.86z M182.414,288.813c6.398,0,10.237-3.584,10.237-11.774v-2.047
		c0-8.703-3.839-11.774-10.237-11.774h-12.798v25.596h12.798V288.813z"/>
	<path style="fill:#ECEDF8;" d="M267.133,218.682c0-4.224,4.863-6.015,9.982-6.015c4.863,0,9.982,1.791,9.982,6.015v58.1
		c0,22.012-14.205,30.202-32.25,30.202c-18.172,0-32.25-8.19-32.25-30.202v-58.1c0-4.224,4.863-6.015,9.982-6.015
		c4.863,0,9.982,1.791,9.982,6.015v58.1c0,8.702,4.607,12.798,12.285,12.798c7.679,0,12.285-4.096,12.285-12.798v-58.1H267.133z"/>
	<path style="fill:#ECEDF8;" d="M321.395,267.952c0-0.768-0.256-1.408-0.512-1.792l-26.49-43.895
		c-0.256-0.512-0.256-1.023-0.256-1.407c0-4.735,8.063-8.19,13.564-8.19c3.2,0,4.352,1.279,5.76,3.711l17.916,32.89l17.789-32.89
		c1.279-2.432,2.56-3.711,5.759-3.711c5.503,0,13.565,3.455,13.565,8.19c0,0.384,0,0.896-0.256,1.407l-26.363,43.895
		c-0.256,0.384-0.512,1.024-0.512,1.792v32.122c0,4.095-4.991,6.143-9.982,6.143c-4.99,0-9.982-2.048-9.982-6.143L321.395,267.952
		L321.395,267.952z"/>
</g>
<g>
	<path style="fill:#D6D8F6;" d="M277.115,212.667c-5.119,0-9.982,1.791-9.982,6.015v58.101c0,8.255-4.151,12.358-11.133,12.758
		v17.427c17.492-0.346,31.098-8.646,31.098-30.185v-58.101C287.098,214.458,281.979,212.667,277.115,212.667z"/>
	<path style="fill:#D6D8F6;" d="M321.395,267.952c0-0.768-0.256-1.408-0.512-1.792l-26.49-43.895
		c-0.256-0.512-0.256-1.023-0.256-1.407c0-4.735,8.063-8.19,13.564-8.19c3.2,0,4.352,1.279,5.76,3.711l17.916,32.89l17.789-32.89
		c1.279-2.432,2.56-3.711,5.759-3.711c5.503,0,13.565,3.455,13.565,8.19c0,0.384,0,0.896-0.256,1.407l-26.363,43.895
		c-0.256,0.384-0.512,1.024-0.512,1.792v32.122c0,4.095-4.991,6.143-9.982,6.143c-4.99,0-9.982-2.048-9.982-6.143L321.395,267.952
		L321.395,267.952z"/>
</g>
<g>
</g>
<g>
</g>
<g>
</g>
<g>
</g>
<g>
</g>
<g>
</g>
<g>
</g>
<g>
</g>
<g>
</g>
<g>
</g>
<g>
</g>
<g>
</g>
<g>
</g>
<g>
</g>
<g>
</g>
</svg>
