<svg id="Capa_1" enable-background="new 0 0 511.994 511.994" height="512" viewBox="0 0 511.994 511.994" width="512" xmlns="http://www.w3.org/2000/svg"><g><g><g><path d="m463.549 255.39c-45.159 76.141-121.432 126.161-207.921 126.161-86.014 0-161.923-49.494-207.183-124.939 33.731-56.861 84.801-99.161 144.522-116.925.445-.141.889-.273 1.334-.394v-.01c19.846-5.77 40.642-8.842 62.065-8.842 86.024.001 161.933 49.505 207.183 124.949z" fill="#f1f1f4"/><path d="m255.628 381.551c-86.014 0-161.923-49.494-207.183-124.939 33.731-56.861 84.801-99.161 144.522-116.925-57.053 18.129-110.448 186.196 62.661 241.864z" fill="#dfeaef"/><circle cx="256.37" cy="256.001" fill="#698ed5" r="82.897"/><circle cx="256.37" cy="256.001" fill="#454045" r="42.197"/></g><g fill="#f9ef63"><path d="m332.529 504.494c-13.424 0-24.562-10.612-25.094-24.145-.545-13.869 10.256-25.554 24.124-26.099 37.974-1.492 76.476-4.167 114.725-7.966 3.799-38.249 6.474-76.75 7.966-114.725.545-13.869 12.22-24.662 26.099-24.124 13.869.545 24.67 12.229 24.124 26.099-1.8 45.815-5.278 92.371-10.335 138.372-1.286 11.706-10.529 20.948-22.234 22.234-46.001 5.057-92.557 8.534-138.372 10.335-.335.012-.67.019-1.003.019z"/><path d="m32.649 204.579c-.334 0-.668-.007-1.005-.02-13.868-.545-24.669-12.229-24.124-26.099 1.8-45.815 5.278-92.371 10.335-138.372 1.286-11.706 10.529-20.948 22.234-22.234 46.001-5.057 92.557-8.534 138.372-10.334 13.854-.558 25.554 10.255 26.099 24.124s-10.256 25.554-24.124 26.099c-37.974 1.492-76.476 4.167-114.725 7.966-3.799 38.249-6.474 76.75-7.966 114.725-.533 13.532-11.673 24.145-25.096 24.145z"/><path d="m179.466 504.494c-.334 0-.668-.007-1.005-.02-45.815-1.8-92.371-5.278-138.372-10.335-11.706-1.286-20.948-10.529-22.234-22.234-5.057-46.001-8.534-92.557-10.335-138.372-.545-13.869 10.256-25.554 24.124-26.099 13.868-.554 25.554 10.256 26.099 24.124 1.492 37.974 4.167 76.476 7.966 114.725 38.249 3.799 76.75 6.474 114.725 7.966 13.869.545 24.67 12.23 24.124 26.099-.53 13.533-11.669 24.146-25.092 24.146z"/><path d="m479.345 204.579c-13.424 0-24.562-10.612-25.094-24.145-1.492-37.974-4.167-76.476-7.966-114.725-38.249-3.799-76.75-6.474-114.725-7.966-13.869-.545-24.67-12.23-24.124-26.099.545-13.869 12.23-24.661 26.099-24.124 45.815 1.8 92.371 5.278 138.372 10.335 11.706 1.286 20.948 10.529 22.234 22.234 5.057 46.001 8.534 92.557 10.335 138.372.545 13.869-10.256 25.554-24.124 26.099-.339.012-.674.019-1.007.019z"/></g><g fill="#f1d333"><path d="m494.735 312.659c-7.45 4.27-12.62 12.37-12.98 21.84-1.5 39.45-4.17 79.439-7.97 119.179-38.25 3.94-76.749 6.72-114.729 8.27-13.87.57-24.67 12.71-24.12 27.11.21 5.73 2.19 10.96 5.37 15.14-2.26.1-4.52.19-6.77.28-.34.01-.67.02-1.01.02-13.42 0-24.56-10.61-25.09-24.15-.55-13.86 10.25-25.55 24.12-26.09 37.98-1.5 76.479-4.17 114.729-7.97 3.8-38.25 6.47-76.749 7.97-114.729.54-13.87 12.22-24.66 26.09-24.12 5.43.21 10.4 2.13 14.39 5.22z"/><path d="m35.02 175.451c-.38 10.2 4.92 19.26 12.97 23.88-4.26 3.3-9.59 5.25-15.34 5.25-.33 0-.67-.01-1-.02-13.87-.54-24.67-12.23-24.13-26.1 1.8-45.809 5.28-92.369 10.34-138.368 1.28-11.71 10.52-20.95 22.23-22.23 4.01-.44 8.02-.87 12.03-1.28-3.69 4.03-6.14 9.28-6.76 15.13-5.06 47.779-8.54 96.148-10.34 143.738z"/><path d="m45.36 480.288c.62 5.85 3.07 11.1 6.76 15.13-4.01-.41-8.02-.84-12.03-1.28-11.71-1.28-20.95-10.52-22.23-22.23-5.06-46-8.54-92.559-10.34-138.369-.54-13.87 10.26-25.56 24.13-26.1 6.14-.25 11.85 1.73 16.35 5.23-8.06 4.61-13.36 13.67-12.98 23.88 1.8 47.59 5.28 95.949 10.34 143.739z"/><path d="m494.735 199.34c-3.99 3.09-8.96 5.01-14.39 5.22-.33.01-.67.02-1 .02-13.42 0-24.56-10.61-25.09-24.14-1.5-37.98-4.17-76.479-7.97-114.729-38.25-3.8-76.749-6.47-114.729-7.97-13.87-.54-24.67-12.23-24.12-26.09.54-13.87 12.23-24.67 26.1-24.13 2.25.09 4.51.18 6.77.28-3.18 4.18-5.15 9.4-5.37 15.13-.55 14.41 10.25 26.55 24.12 27.12 37.98 1.55 76.479 4.33 114.729 8.27 3.8 39.74 6.47 79.729 7.97 119.179.36 9.471 5.53 17.57 12.98 21.84z"/></g></g><g><path d="m383.881 341.427c-2.226-3.493-6.862-4.522-10.355-2.295-35.851 22.842-76.62 34.915-117.899 34.915-78.78 0-152.639-43.822-198.404-117.461 33.343-54.256 82.156-93.135 137.882-109.708.046-.014.093-.028.139-.043.296-.094.598-.183.896-.271l.288-.085c.106-.031.211-.065.315-.101 19.388-5.6 39.447-8.439 59.624-8.439 78.78 0 152.639 43.826 198.404 117.47-15.952 25.957-35.443 48.442-57.984 66.882-3.206 2.623-3.679 7.348-1.056 10.554s7.348 3.678 10.554 1.056c25.008-20.459 46.444-45.587 63.71-74.687 1.406-2.371 1.399-5.321-.019-7.685-48.296-80.52-128.15-128.591-213.609-128.591-21.716 0-43.304 3.074-64.163 9.138-.131.038-.26.08-.388.125-.351.103-.704.208-1.052.318-60.638 18.053-113.469 60.76-148.766 120.261-1.406 2.371-1.399 5.321.019 7.685 48.297 80.513 128.151 128.581 213.609 128.581 44.139 0 87.695-12.886 125.958-37.265 3.495-2.224 4.522-6.86 2.297-10.354z"/><path d="m165.973 256.001c0 49.845 40.552 90.396 90.397 90.396s90.397-40.552 90.397-90.396c0-49.845-40.552-90.397-90.397-90.397s-90.397 40.552-90.397 90.397zm165.794 0c0 41.574-33.823 75.396-75.397 75.396s-75.397-33.823-75.397-75.396c0-41.574 33.823-75.397 75.397-75.397s75.397 33.823 75.397 75.397z"/><path d="m206.673 256.001c0 27.403 22.294 49.697 49.697 49.697s49.697-22.294 49.697-49.697-22.294-49.697-49.697-49.697-49.697 22.294-49.697 49.697zm84.394 0c0 19.132-15.565 34.697-34.697 34.697s-34.697-15.565-34.697-34.697 15.565-34.697 34.697-34.697 34.697 15.565 34.697 34.697z"/><path d="m503.324 310.396c-5.916-6.4-13.971-10.114-22.684-10.456-17.991-.714-33.177 13.354-33.884 31.324-1.404 35.731-3.871 72.085-7.337 108.155-36.07 3.466-72.424 5.933-108.155 7.337-17.979.707-32.03 15.909-31.323 33.888.69 17.58 15.004 31.35 32.588 31.35.431 0 .864-.009 1.299-.026 45.992-1.808 92.724-5.298 138.897-10.374 15.314-1.683 27.186-13.554 28.87-28.869 5.076-46.173 8.566-92.905 10.374-138.897.342-8.71-2.728-17.031-8.645-23.432zm-16.64 160.69c-.91 8.275-7.324 14.689-15.599 15.598-45.826 5.038-92.204 8.502-137.846 10.296-9.823.38-17.928-7.19-18.31-16.925-.382-9.714 7.21-17.928 16.924-18.31 38.052-1.495 76.801-4.186 115.172-7.997 3.556-.354 6.369-3.166 6.722-6.722 3.811-38.371 6.502-77.12 7.997-115.171.373-9.478 8.21-16.938 17.619-16.938.229 0 .461.004.692.013 4.706.185 9.058 2.191 12.254 5.649 3.197 3.458 4.855 7.955 4.67 12.661-1.793 45.641-5.257 92.019-10.295 137.846z"/><path d="m31.417 212.055c.407.012.826.023 1.233.023 17.583 0 31.895-13.769 32.584-31.344 1.415-35.823 3.883-72.178 7.34-108.16 35.982-3.458 72.337-5.925 108.156-7.34 8.711-.339 16.767-4.052 22.684-10.456 5.916-6.402 8.983-14.725 8.638-23.431-.339-8.713-4.055-16.772-10.464-22.692-6.405-5.917-14.721-8.975-23.425-8.63-19.445.768-39.051 1.835-58.274 3.172-4.132.288-7.249 3.87-6.961 8.002.287 4.132 3.866 7.243 8.002 6.961 19.075-1.327 38.53-2.386 57.832-3.148 4.705-.189 9.19 1.465 12.649 4.661 3.462 3.198 5.47 7.551 5.654 12.262.187 4.707-1.471 9.203-4.667 12.662-3.195 3.458-7.546 5.464-12.254 5.647-38.152 1.507-76.903 4.199-115.174 8-3.556.354-6.369 3.166-6.722 6.722-3.802 38.271-6.494 77.021-8 115.176-.372 9.496-8.101 16.934-17.596 16.934-.253 0-.514-.008-.708-.014-4.705-.183-9.056-2.189-12.253-5.648-3.198-3.459-4.858-7.958-4.675-12.663 1.792-45.627 5.258-92.004 10.301-137.848.904-8.273 7.318-14.688 15.596-15.6 16.901-1.862 34.027-3.517 50.9-4.921 4.128-.343 7.196-3.968 6.853-8.096s-3.964-7.193-8.096-6.853c-17.008 1.418-34.268 3.087-51.302 4.963-15.32 1.688-27.19 13.563-28.864 28.875-5.08 46.186-8.572 92.917-10.379 138.896-.339 8.71 2.732 17.031 8.647 23.431 5.919 6.403 13.975 10.116 22.745 10.457z"/><path d="m180.729 446.756c-35.731-1.404-72.085-3.871-108.155-7.337-3.466-36.07-5.933-72.424-7.337-108.155-.342-8.709-4.056-16.765-10.457-22.683-6.403-5.92-14.729-8.99-23.431-8.641-8.709.342-16.765 4.055-22.681 10.456-5.917 6.4-8.986 14.722-8.644 23.431 1.808 45.992 5.298 92.724 10.374 138.897 1.684 15.315 13.555 27.187 28.87 28.87 46.173 5.076 92.905 8.566 138.898 10.374.436.017.866.026 1.298.026 17.583 0 31.898-13.771 32.588-31.35.708-17.979-13.344-33.181-31.323-33.888zm-1.974 50.224c-45.643-1.794-92.021-5.258-137.847-10.296-8.274-.909-14.688-7.323-15.598-15.598-5.038-45.826-8.502-92.205-10.296-137.847-.185-4.706 1.474-9.202 4.67-12.661 3.197-3.458 7.548-5.464 12.259-5.649.241-.01.48-.015.72-.015 4.44 0 8.654 1.647 11.935 4.681 3.459 3.198 5.466 7.551 5.651 12.258 1.495 38.052 4.186 76.801 7.997 115.172.354 3.556 3.166 6.369 6.722 6.722 38.371 3.811 77.12 6.502 115.171 7.997 9.714.382 17.307 8.596 16.925 18.311-.381 9.735-8.522 17.307-18.309 16.925z"/><path d="m331.265 65.237c35.724 1.404 72.078 3.871 108.155 7.337 3.466 36.069 5.933 72.423 7.337 108.155.691 17.579 15.006 31.35 32.588 31.35.431 0 .864-.009 1.299-.026 17.979-.707 32.031-15.908 31.324-33.887-1.808-45.992-5.298-92.724-10.374-138.897-1.683-15.315-13.555-27.187-28.87-28.87-46.172-5.076-92.904-8.566-138.901-10.374-17.964-.662-33.177 13.357-33.882 31.324-.707 17.979 13.345 33.181 31.324 33.888zm1.283-50.236c.229 0 .46.004.691.013 45.643 1.794 92.021 5.258 137.847 10.296 8.274.91 14.688 7.324 15.598 15.598 5.038 45.826 8.502 92.205 10.296 137.847.382 9.714-7.211 17.928-16.924 18.31-9.833.373-17.929-7.19-18.312-16.925-1.495-38.052-4.186-76.801-7.997-115.172-.354-3.556-3.166-6.369-6.722-6.722-38.379-3.812-77.128-6.502-115.171-7.997-9.714-.382-17.307-8.596-16.925-18.311.372-9.477 8.21-16.937 17.619-16.937z"/></g></g></svg>